
<svg xmlns="http://www.w3.org/2000/svg" viewBox="0 0 400 400">
  <defs>
    
    <linearGradient id="grad1" x1="0%" y1="0%" x2="100%" y2="100%">
      <stop offset="0%" style="stop-color:#E8956D"></stop>
      <stop offset="100%" style="stop-color:#C96442"></stop>
    </linearGradient>
    <linearGradient id="grad2" x1="0%" y1="0%" x2="100%" y2="100%">
      <stop offset="0%" style="stop-color:#D4785A"></stop>
      <stop offset="100%" style="stop-color:#B85C38"></stop>
    </linearGradient>
    <linearGradient id="grad3" x1="0%" y1="0%" x2="100%" y2="100%">
      <stop offset="0%" style="stop-color:#F0A882"></stop>
      <stop offset="100%" style="stop-color:#D4785A"></stop>
    </linearGradient>
    <linearGradient id="barGrad" x1="0%" y1="0%" x2="0%" y2="100%">
      <stop offset="0%" style="stop-color:#E8956D"></stop>
      <stop offset="100%" style="stop-color:#C96442"></stop>
    </linearGradient>
    <linearGradient id="dotGrad" x1="0%" y1="0%" x2="100%" y2="100%">
      <stop offset="0%" style="stop-color:#F0A882"></stop>
      <stop offset="100%" style="stop-color:#C96442"></stop>
    </linearGradient>
    <radialGradient id="bgGrad" cx="50%" cy="50%" r="50%">
      <stop offset="0%" style="stop-color:#FDF6F0"></stop>
      <stop offset="100%" style="stop-color:#F5EBE0"></stop>
    </radialGradient>
  </defs>

  
  <circle cx="200" cy="200" r="200" fill="url(#bgGrad)"></circle>

  
  
  <circle cx="185" cy="178" r="88" fill="none" stroke="url(#grad1)" stroke-width="22" stroke-linecap="round"></circle>
  
  <line x1="249" y1="245" x2="306" y2="308" stroke="url(#grad2)" stroke-width="22" stroke-linecap="round"></line>

  
  
  <rect x="148" y="195" width="18" height="42" rx="5" fill="url(#barGrad)" opacity="0.9"></rect>
  
  <rect x="176" y="172" width="18" height="65" rx="5" fill="url(#grad2)" opacity="0.95"></rect>
  
  <rect x="204" y="183" width="18" height="54" rx="5" fill="url(#grad3)" opacity="0.9"></rect>

  
  <polyline points="148,195 185,168 222,178" fill="none" stroke="#C96442" stroke-width="5" stroke-linecap="round" stroke-linejoin="round" opacity="0.85"></polyline>
  
  <circle cx="148" cy="195" r="5" fill="#C96442" opacity="0.9"></circle>
  <circle cx="185" cy="168" r="5" fill="#C96442" opacity="0.9"></circle>
  <circle cx="222" cy="178" r="5" fill="#C96442" opacity="0.9"></circle>

</svg>
